<mxfile host="drawio-plugin" modified="2021-10-13T14:08:43.326Z" agent="5.0 (X11; Linux x86_64) AppleWebKit/537.36 (KHTML, like Gecko) Chrome/89.0.4389.114 Safari/537.36" etag="cdCxB0gRHlbFOmp1rdg2" version="14.7.4" type="embed"><diagram id="4mecZb3E88RG4_fVipaJ" name="Page-1"><mxGraphModel dx="1306" dy="888" grid="1" gridSize="10" guides="1" tooltips="1" connect="1" arrows="1" fold="1" page="0" pageScale="1" pageWidth="827" pageHeight="1169" background="#09555B" math="0" shadow="0"><root><mxCell id="0"/><mxCell id="1" parent="0"/><mxCell id="40" style="edgeStyle=orthogonalEdgeStyle;rounded=0;orthogonalLoop=1;jettySize=auto;html=1;entryX=1;entryY=0.5;entryDx=0;entryDy=0;endArrow=classic;endFill=1;startArrow=classic;startFill=1;strokeWidth=8;sketch=1;entryPerimeter=0;" parent="1" source="8" target="87" edge="1"><mxGeometry relative="1" as="geometry"><mxPoint x="800" y="100" as="targetPoint"/></mxGeometry></mxCell><mxCell id="8" value="API" style="swimlane;fontStyle=0;childLayout=stackLayout;horizontal=1;startSize=26;fillColor=#1ba1e2;horizontalStack=0;resizeParent=1;resizeParentMax=0;resizeLast=0;collapsible=1;marginBottom=0;rounded=0;sketch=1;fontColor=#ffffff;strokeColor=#006EAF;" parent="1" vertex="1"><mxGeometry x="1040" y="-5" width="250" height="312" as="geometry"/></mxCell><mxCell id="9" value="включить  мотор  num" style="text;align=left;verticalAlign=top;spacingLeft=4;spacingRight=4;overflow=hidden;rotatable=0;points=[[0,0.5],[1,0.5]];portConstraint=eastwest;sketch=1;strokeColor=#3399FF;" parent="8" vertex="1"><mxGeometry y="26" width="250" height="26" as="geometry"/></mxCell><mxCell id="10" value="выключить  мотор num " style="text;align=left;verticalAlign=top;spacingLeft=4;spacingRight=4;overflow=hidden;rotatable=0;points=[[0,0.5],[1,0.5]];portConstraint=eastwest;sketch=1;strokeColor=#3399FF;" parent="8" vertex="1"><mxGeometry y="52" width="250" height="26" as="geometry"/></mxCell><mxCell id="11" value="включить  свет  num" style="text;align=left;verticalAlign=top;spacingLeft=4;spacingRight=4;overflow=hidden;rotatable=0;points=[[0,0.5],[1,0.5]];portConstraint=eastwest;sketch=1;strokeColor=#3399FF;" parent="8" vertex="1"><mxGeometry y="78" width="250" height="26" as="geometry"/></mxCell><mxCell id="15" value="выключить  свет num " style="text;align=left;verticalAlign=top;spacingLeft=4;spacingRight=4;overflow=hidden;rotatable=0;points=[[0,0.5],[1,0.5]];portConstraint=eastwest;sketch=1;strokeColor=#3399FF;" parent="8" vertex="1"><mxGeometry y="104" width="250" height="26" as="geometry"/></mxCell><mxCell id="16" value="включить  мотор  num на время tim" style="text;align=left;verticalAlign=top;spacingLeft=4;spacingRight=4;overflow=hidden;rotatable=0;points=[[0,0.5],[1,0.5]];portConstraint=eastwest;sketch=1;strokeColor=#3399FF;" parent="8" vertex="1"><mxGeometry y="130" width="250" height="26" as="geometry"/></mxCell><mxCell id="17" value="выключить  свет num на время tim" style="text;fillColor=none;align=left;verticalAlign=top;spacingLeft=4;spacingRight=4;overflow=hidden;rotatable=0;points=[[0,0.5],[1,0.5]];portConstraint=eastwest;sketch=1;strokeColor=#3399FF;" parent="8" vertex="1"><mxGeometry y="156" width="250" height="26" as="geometry"/></mxCell><mxCell id="19" value="получить текущий конфиг демон" style="text;fillColor=none;align=left;verticalAlign=top;spacingLeft=4;spacingRight=4;overflow=hidden;rotatable=0;points=[[0,0.5],[1,0.5]];portConstraint=eastwest;sketch=1;strokeColor=#3399FF;" parent="8" vertex="1"><mxGeometry y="182" width="250" height="26" as="geometry"/></mxCell><mxCell id="20" value="изменить текущий конфиг демон" style="text;fillColor=none;align=left;verticalAlign=top;spacingLeft=4;spacingRight=4;overflow=hidden;rotatable=0;points=[[0,0.5],[1,0.5]];portConstraint=eastwest;sketch=1;strokeColor=#3399FF;" parent="8" vertex="1"><mxGeometry y="208" width="250" height="26" as="geometry"/></mxCell><mxCell id="21" value="получить статистику" style="text;fillColor=none;align=left;verticalAlign=top;spacingLeft=4;spacingRight=4;overflow=hidden;rotatable=0;points=[[0,0.5],[1,0.5]];portConstraint=eastwest;sketch=1;strokeColor=#3399FF;" parent="8" vertex="1"><mxGeometry y="234" width="250" height="26" as="geometry"/></mxCell><mxCell id="100" value="сбросить и перезапустить все" style="text;fillColor=none;align=left;verticalAlign=top;spacingLeft=4;spacingRight=4;overflow=hidden;rotatable=0;points=[[0,0.5],[1,0.5]];portConstraint=eastwest;sketch=1;strokeColor=#3399FF;" parent="8" vertex="1"><mxGeometry y="260" width="250" height="26" as="geometry"/></mxCell><mxCell id="106" value="Удалить бекап бд" style="text;fillColor=none;align=left;verticalAlign=top;spacingLeft=4;spacingRight=4;overflow=hidden;rotatable=0;points=[[0,0.5],[1,0.5]];portConstraint=eastwest;sketch=1;strokeColor=#3399FF;" parent="8" vertex="1"><mxGeometry y="286" width="250" height="26" as="geometry"/></mxCell><mxCell id="25" style="edgeStyle=orthogonalEdgeStyle;curved=0;rounded=1;sketch=1;orthogonalLoop=1;jettySize=auto;html=1;exitX=0.5;exitY=1;exitDx=0;exitDy=0;fontColor=#FFFFFF;strokeColor=#EEEEEE;" parent="1" source="22" target="24" edge="1"><mxGeometry relative="1" as="geometry"/></mxCell><mxCell id="22" value="&lt;b&gt;Удаляем и собираем бд заново&lt;/b&gt;" style="rounded=0;whiteSpace=wrap;html=1;sketch=1;fillColor=#0050ef;strokeColor=#001DBC;fontColor=#ffffff;" parent="1" vertex="1"><mxGeometry x="530" y="70" width="130" height="60" as="geometry"/></mxCell><mxCell id="37" style="edgeStyle=orthogonalEdgeStyle;curved=0;rounded=1;sketch=1;orthogonalLoop=1;jettySize=auto;html=1;entryX=1;entryY=0.5;entryDx=0;entryDy=0;fontColor=#f0f0f0;strokeColor=#EEEEEE;startArrow=classic;startFill=1;exitX=0;exitY=0.5;exitDx=0;exitDy=0;" parent="1" source="114" target="22" edge="1"><mxGeometry relative="1" as="geometry"><mxPoint x="840" y="-10" as="sourcePoint"/></mxGeometry></mxCell><mxCell id="36" style="edgeStyle=orthogonalEdgeStyle;curved=0;rounded=1;sketch=1;orthogonalLoop=1;jettySize=auto;html=1;exitX=0.5;exitY=1;exitDx=0;exitDy=0;entryX=0.278;entryY=0.167;entryDx=0;entryDy=0;entryPerimeter=0;fontColor=#f0f0f0;strokeColor=#EEEEEE;" parent="1" source="24" target="26" edge="1"><mxGeometry relative="1" as="geometry"/></mxCell><mxCell id="24" value="&lt;b&gt;настраиваем&amp;nbsp; борду и &lt;br&gt;пины&lt;/b&gt;" style="rounded=0;whiteSpace=wrap;html=1;sketch=1;fillColor=#0050ef;strokeColor=#001DBC;fontColor=#ffffff;" parent="1" vertex="1"><mxGeometry x="580" y="170" width="170" height="60" as="geometry"/></mxCell><mxCell id="33" style="edgeStyle=orthogonalEdgeStyle;curved=0;rounded=1;sketch=1;orthogonalLoop=1;jettySize=auto;html=1;entryX=1;entryY=0.5;entryDx=0;entryDy=0;fontColor=#f0f0f0;strokeColor=#EEEEEE;" parent="1" source="26" target="31" edge="1"><mxGeometry relative="1" as="geometry"/></mxCell><mxCell id="38" style="edgeStyle=orthogonalEdgeStyle;curved=0;rounded=1;sketch=1;orthogonalLoop=1;jettySize=auto;html=1;entryX=0.75;entryY=1;entryDx=0;entryDy=0;fontColor=#f0f0f0;strokeColor=#EEEEEE;exitX=-0.039;exitY=0.494;exitDx=0;exitDy=0;exitPerimeter=0;" parent="1" source="26" target="34" edge="1"><mxGeometry relative="1" as="geometry"/></mxCell><mxCell id="95" style="edgeStyle=orthogonalEdgeStyle;rounded=0;sketch=1;orthogonalLoop=1;jettySize=auto;html=1;entryX=0.5;entryY=1;entryDx=0;entryDy=0;entryPerimeter=0;startArrow=none;startFill=0;endArrow=classic;endFill=1;startSize=4;endSize=4;strokeWidth=1;" parent="1" source="31" target="32" edge="1"><mxGeometry relative="1" as="geometry"/></mxCell><mxCell id="105" style="edgeStyle=orthogonalEdgeStyle;rounded=0;orthogonalLoop=1;jettySize=auto;html=1;exitX=0.5;exitY=1;exitDx=0;exitDy=0;entryX=0.5;entryY=0;entryDx=0;entryDy=0;entryPerimeter=0;sketch=1;" parent="1" source="31" target="104" edge="1"><mxGeometry relative="1" as="geometry"/></mxCell><mxCell id="31" value="&lt;b&gt;ЕСЛИ пин изменился&amp;nbsp; обновляем его и пишим лог&lt;br&gt;+&lt;br&gt;обновляем бекап&lt;br&gt;&lt;/b&gt;" style="rounded=0;whiteSpace=wrap;html=1;sketch=1;fillColor=#0050ef;strokeColor=#001DBC;fontColor=#ffffff;" parent="1" vertex="1"><mxGeometry x="290" y="380" width="180" height="100" as="geometry"/></mxCell><mxCell id="32" value="&lt;b&gt;Log BD&lt;br&gt;&lt;/b&gt;" style="shape=cylinder3;whiteSpace=wrap;html=1;boundedLbl=1;backgroundOutline=1;size=15;rounded=0;sketch=1;fontColor=#ffffff;strokeColor=#3700CC;fillColor=#6a00ff;" parent="1" vertex="1"><mxGeometry x="50" y="205" width="60" height="80" as="geometry"/></mxCell><mxCell id="39" style="edgeStyle=orthogonalEdgeStyle;curved=0;rounded=1;sketch=1;orthogonalLoop=1;jettySize=auto;html=1;entryX=0;entryY=1;entryDx=0;entryDy=0;fontColor=#f0f0f0;strokeColor=#EEEEEE;" parent="1" source="34" target="22" edge="1"><mxGeometry relative="1" as="geometry"><Array as="points"><mxPoint x="480" y="130"/></Array></mxGeometry></mxCell><mxCell id="97" style="edgeStyle=orthogonalEdgeStyle;rounded=0;sketch=1;orthogonalLoop=1;jettySize=auto;html=1;exitX=0.5;exitY=0;exitDx=0;exitDy=0;entryX=0.5;entryY=1;entryDx=0;entryDy=0;startArrow=none;startFill=0;endArrow=classic;endFill=1;startSize=4;endSize=4;strokeWidth=1;" parent="1" source="34" target="96" edge="1"><mxGeometry relative="1" as="geometry"/></mxCell><mxCell id="34" value="&lt;b&gt;если ошибка отпровляем в телегу сообщение сбрасыаваем в&amp;nbsp;&lt;/b&gt;" style="rounded=0;whiteSpace=wrap;html=1;sketch=1;fillColor=#0050ef;strokeColor=#001DBC;fontColor=#ffffff;" parent="1" vertex="1"><mxGeometry x="320" y="205" width="230" height="50" as="geometry"/></mxCell><mxCell id="98" style="edgeStyle=orthogonalEdgeStyle;rounded=0;sketch=1;orthogonalLoop=1;jettySize=auto;html=1;exitX=0.5;exitY=1;exitDx=0;exitDy=0;entryX=0.5;entryY=0;entryDx=0;entryDy=0;startArrow=none;startFill=0;endArrow=classic;endFill=1;startSize=4;endSize=4;strokeWidth=1;" parent="1" source="44" target="8" edge="1"><mxGeometry relative="1" as="geometry"/></mxCell><mxCell id="44" value="&lt;b&gt;TELEGRAM&lt;/b&gt;" style="shape=offPageConnector;whiteSpace=wrap;html=1;sketch=1;fillColor=#60a917;strokeColor=#2D7600;fontColor=#ffffff;" parent="1" vertex="1"><mxGeometry x="1080" y="-110" width="170" height="50" as="geometry"/></mxCell><mxCell id="48" value="Status" style="swimlane;fontStyle=1;childLayout=stackLayout;horizontal=1;startSize=26;fillColor=#60a917;horizontalStack=0;resizeParent=1;resizeParentMax=0;resizeLast=0;collapsible=1;marginBottom=0;rounded=0;sketch=1;fontColor=#ffffff;strokeColor=#2D7600;" parent="1" vertex="1"><mxGeometry x="700" y="480" width="250" height="156" as="geometry"/></mxCell><mxCell id="49" value="name (motor1/motor2/...)" style="text;align=left;verticalAlign=top;spacingLeft=4;spacingRight=4;overflow=hidden;rotatable=0;points=[[0,0.5],[1,0.5]];portConstraint=eastwest;sketch=1;strokeColor=#60A917;" parent="48" vertex="1"><mxGeometry y="26" width="250" height="26" as="geometry"/></mxCell><mxCell id="50" value="status (0/1)" style="text;align=left;verticalAlign=top;spacingLeft=4;spacingRight=4;overflow=hidden;rotatable=0;points=[[0,0.5],[1,0.5]];portConstraint=eastwest;sketch=1;strokeColor=#60A917;" parent="48" vertex="1"><mxGeometry y="52" width="250" height="26" as="geometry"/></mxCell><mxCell id="51" value="num_pin" style="text;align=left;verticalAlign=top;spacingLeft=4;spacingRight=4;overflow=hidden;rotatable=0;points=[[0,0.5],[1,0.5]];portConstraint=eastwest;sketch=1;strokeColor=#60A917;" parent="48" vertex="1"><mxGeometry y="78" width="250" height="26" as="geometry"/></mxCell><mxCell id="52" value="cron" style="text;align=left;verticalAlign=top;spacingLeft=4;spacingRight=4;overflow=hidden;rotatable=0;points=[[0,0.5],[1,0.5]];portConstraint=eastwest;sketch=1;strokeColor=#60A917;" parent="48" vertex="1"><mxGeometry y="104" width="250" height="26" as="geometry"/></mxCell><mxCell id="53" value="time_duration_tmp" style="text;align=left;verticalAlign=top;spacingLeft=4;spacingRight=4;overflow=hidden;rotatable=0;points=[[0,0.5],[1,0.5]];portConstraint=eastwest;sketch=1;strokeColor=#60A917;" parent="48" vertex="1"><mxGeometry y="130" width="250" height="26" as="geometry"/></mxCell><mxCell id="70" value="STAT" style="swimlane;fontStyle=1;childLayout=stackLayout;horizontal=1;startSize=26;fillColor=#60a917;horizontalStack=0;resizeParent=1;resizeParentMax=0;resizeLast=0;collapsible=1;marginBottom=0;rounded=0;sketch=1;fontColor=#ffffff;strokeColor=#2D7600;" parent="1" vertex="1"><mxGeometry x="-530" y="206" width="250" height="104" as="geometry"/></mxCell><mxCell id="71" value="name" style="text;align=left;verticalAlign=top;spacingLeft=4;spacingRight=4;overflow=hidden;rotatable=0;points=[[0,0.5],[1,0.5]];portConstraint=eastwest;sketch=1;strokeColor=#60A917;" parent="70" vertex="1"><mxGeometry y="26" width="250" height="26" as="geometry"/></mxCell><mxCell id="129" value="info" style="text;align=left;verticalAlign=top;spacingLeft=4;spacingRight=4;overflow=hidden;rotatable=0;points=[[0,0.5],[1,0.5]];portConstraint=eastwest;sketch=1;strokeColor=#60A917;" vertex="1" parent="70"><mxGeometry y="52" width="250" height="26" as="geometry"/></mxCell><mxCell id="72" value="time" style="text;align=left;verticalAlign=top;spacingLeft=4;spacingRight=4;overflow=hidden;rotatable=0;points=[[0,0.5],[1,0.5]];portConstraint=eastwest;sketch=1;strokeColor=#60A917;" parent="70" vertex="1"><mxGeometry y="78" width="250" height="26" as="geometry"/></mxCell><mxCell id="82" value="&lt;b&gt;Log BD&lt;br&gt;&lt;/b&gt;" style="shape=cylinder3;whiteSpace=wrap;html=1;boundedLbl=1;backgroundOutline=1;size=15;rounded=0;sketch=1;fontColor=#ffffff;strokeColor=#3700CC;fillColor=#6a00ff;" parent="1" vertex="1"><mxGeometry x="-140" y="205" width="60" height="80" as="geometry"/></mxCell><mxCell id="83" style="edgeStyle=orthogonalEdgeStyle;rounded=0;orthogonalLoop=1;jettySize=auto;html=1;exitX=1;exitY=0.5;exitDx=0;exitDy=0;entryX=0;entryY=0.5;entryDx=0;entryDy=0;entryPerimeter=0;startArrow=classic;startFill=1;endArrow=classic;endFill=1;strokeWidth=2;endSize=4;startSize=4;sketch=1;" parent="1" source="71" target="82" edge="1"><mxGeometry relative="1" as="geometry"/></mxCell><mxCell id="84" style="edgeStyle=orthogonalEdgeStyle;rounded=0;orthogonalLoop=1;jettySize=auto;html=1;exitX=1;exitY=0.5;exitDx=0;exitDy=0;entryX=0;entryY=0.5;entryDx=0;entryDy=0;entryPerimeter=0;startArrow=classic;startFill=1;endArrow=classic;endFill=1;strokeWidth=2;startSize=4;endSize=4;sketch=1;" parent="1" source="51" target="81" edge="1"><mxGeometry relative="1" as="geometry"/></mxCell><mxCell id="88" value="" style="group;sketch=1;" parent="1" vertex="1" connectable="0"><mxGeometry x="609" y="300" width="101" height="110" as="geometry"/></mxCell><mxCell id="26" value="DEMON" style="html=1;verticalLabelPosition=bottom;align=center;labelBackgroundColor=none;verticalAlign=top;strokeWidth=2;shadow=0;dashed=0;shape=mxgraph.ios7.icons.reload;rounded=0;sketch=1;" parent="88" vertex="1"><mxGeometry y="20" width="72" height="90" as="geometry"/></mxCell><mxCell id="87" value="&lt;b style=&quot;font-size: 11px&quot;&gt;STATUS&lt;br&gt;&lt;/b&gt;" style="shape=cylinder3;whiteSpace=wrap;html=1;boundedLbl=1;backgroundOutline=1;size=15;rounded=0;sketch=1;fontColor=#ffffff;strokeColor=#3700CC;fillColor=#6a00ff;" parent="88" vertex="1"><mxGeometry x="51" width="50" height="60" as="geometry"/></mxCell><mxCell id="96" value="&lt;b&gt;TELEGRAM&lt;/b&gt;" style="shape=offPageConnector;whiteSpace=wrap;html=1;sketch=1;fillColor=#60a917;strokeColor=#2D7600;fontColor=#ffffff;" parent="1" vertex="1"><mxGeometry x="420" y="70" width="80" height="40" as="geometry"/></mxCell><mxCell id="103" value="" style="group;sketch=1;" parent="1" vertex="1" connectable="0"><mxGeometry x="360" y="430" width="60" height="181" as="geometry"/></mxCell><mxCell id="104" value="&lt;b&gt;STATUS&lt;/b&gt;&lt;br&gt;&lt;b&gt;backup&lt;/b&gt;&lt;br&gt;" style="shape=cylinder3;whiteSpace=wrap;html=1;boundedLbl=1;backgroundOutline=1;size=15;rounded=0;sketch=1;fontColor=#ffffff;strokeColor=#3700CC;fillColor=#6a00ff;" parent="103" vertex="1"><mxGeometry y="101" width="60" height="80" as="geometry"/></mxCell><mxCell id="107" value="&lt;b&gt;КОНФИГИ ДЛЯ БД&amp;nbsp;&lt;br&gt;стартовые&lt;br&gt;&lt;/b&gt;" style="ellipse;whiteSpace=wrap;html=1;strokeWidth=2;fillWeight=2;hachureGap=8;fillColor=#990000;fillStyle=dots;sketch=1;" parent="1" vertex="1"><mxGeometry x="840" y="-240" width="140" height="90" as="geometry"/></mxCell><mxCell id="81" value="&lt;b&gt;STATUS&lt;br&gt;sqlite&lt;br&gt;&lt;br&gt;&lt;/b&gt;" style="shape=cylinder3;whiteSpace=wrap;html=1;boundedLbl=1;backgroundOutline=1;size=15;rounded=0;sketch=1;fontColor=#ffffff;strokeColor=#3700CC;fillColor=#6a00ff;" parent="1" vertex="1"><mxGeometry x="1060" y="531" width="60" height="80" as="geometry"/></mxCell><mxCell id="109" value="&lt;b&gt;STATUS&lt;/b&gt;&lt;br&gt;&lt;b&gt;backup&lt;/b&gt;&lt;br&gt;" style="shape=cylinder3;whiteSpace=wrap;html=1;boundedLbl=1;backgroundOutline=1;size=15;rounded=0;sketch=1;fontColor=#ffffff;strokeColor=#3700CC;fillColor=#6a00ff;" parent="1" vertex="1"><mxGeometry x="785" y="80" width="60" height="80" as="geometry"/></mxCell><mxCell id="126" style="edgeStyle=orthogonalEdgeStyle;rounded=0;sketch=1;orthogonalLoop=1;jettySize=auto;html=1;exitX=0.5;exitY=0;exitDx=0;exitDy=0;entryX=0.5;entryY=1;entryDx=0;entryDy=0;shadow=0;" parent="1" source="114" target="107" edge="1"><mxGeometry relative="1" as="geometry"/></mxCell><mxCell id="127" style="edgeStyle=orthogonalEdgeStyle;rounded=0;sketch=1;orthogonalLoop=1;jettySize=auto;html=1;exitX=0.5;exitY=1;exitDx=0;exitDy=0;entryX=0.5;entryY=0;entryDx=0;entryDy=0;entryPerimeter=0;" parent="1" source="114" target="109" edge="1"><mxGeometry relative="1" as="geometry"/></mxCell><mxCell id="114" value="&lt;b&gt;ЕСЛИ ЕСТЬ&lt;br&gt;backup&lt;/b&gt;" style="rhombus;whiteSpace=wrap;html=1;sketch=1;fillColor=#60a917;strokeColor=#2D7600;fontColor=#ffffff;" parent="1" vertex="1"><mxGeometry x="845" y="-50" width="130" height="80" as="geometry"/></mxCell></root></mxGraphModel></diagram></mxfile>